<?xml version="1.0" standalone="no"?>
<!DOCTYPE svg PUBLIC "-//W3C//DTD SVG 1.1//EN" "http://www.w3.org/Graphics/SVG/1.1/DTD/svg11.dtd" >
<svg xmlns="http://www.w3.org/2000/svg">
<metadata>Generated by IcoMoon</metadata>
<defs>
<font id="icomoon" horiz-adv-x="1024">
<font-face units-per-em="1024" ascent="960" descent="-64" />
<missing-glyph horiz-adv-x="1024" />
<glyph unicode="&#x20;" horiz-adv-x="512" d="" />
<glyph unicode="&#xe900;" glyph-name="aethetic" d="M490.176 918.236c6.571 21.546 37.056 21.546 43.622 0l73.126-239.833c19.785-64.879 70.579-115.676 135.458-135.458l239.834-73.125c21.547-6.571 21.547-37.056 0-43.627l-239.834-73.122-11.998-4.083c-59.11-22.118-104.913-70.554-123.46-131.375l-73.126-239.834c-6.157-20.203-33.34-21.474-42.125-3.793l-1.498 3.793-4.501 14.665-68.625 225.169c-19.782 64.879-70.58 115.674-135.459 135.458l-239.833 73.122c-21.546 6.571-21.546 37.056 0 43.627l14.625 4.501 225.208 68.624c60.825 18.546 109.26 64.348 131.375 123.458l4.083 12 73.126 239.833zM498.675 653.487c-28.070-92.045-100.122-164.096-192.167-192.166l-43.75-13.291 43.75-13.376c92.045-28.075 164.101-100.117 192.167-192.166l13.291-43.708 13.376 43.708c28.070 92.053 100.109 164.096 192.166 192.166l43.708 13.376-43.708 13.291c-92.049 28.066-164.092 100.121-192.166 192.166l-13.376 43.75-13.291-43.75z" />
<glyph unicode="&#xe901;" glyph-name="arrow-left" d="M496.922 761.75c8.333 8.33 21.837 8.331 30.165 0s8.329-21.837 0-30.167l-262.249-262.25h545.833c11.78-0.004 21.333-9.553 21.333-21.333s-9.553-21.329-21.333-21.333h-545.833l262.249-262.251 2.752-3.332c5.466-8.282 4.535-19.546-2.752-26.833s-18.551-8.213-26.833-2.752l-3.332 2.752-298.666 298.667c-8.332 8.329-8.332 21.837 0 30.165l298.666 298.668z" />
<glyph unicode="&#xe902;" glyph-name="arrow-right" d="M496.917 761.75c8.329 8.331 21.837 8.331 30.165 0l298.667-298.668c1.446-1.442 2.556-3.089 3.499-4.791 1.050-1.886 1.899-3.9 2.334-6.084 0.555-2.761 0.55-5.611 0-8.375-0.431-2.18-1.289-4.194-2.334-6.080-0.943-1.715-2.044-3.383-3.499-4.834l-298.667-298.667c-8.329-8.329-21.837-8.329-30.165 0-8.333 8.329-8.329 21.833 0 30.165l262.251 262.251h-545.835c-11.782 0-21.332 9.553-21.333 21.333s9.551 21.333 21.333 21.333h545.835l-262.251 262.25c-8.333 8.331-8.329 21.836 0 30.167z" />
<glyph unicode="&#xe903;" glyph-name="calendar" d="M984 846h-152v36c0 22.092-17.907 40-40 40s-40-17.908-40-40v-36h-200v36c0 22.092-17.907 40-40 40s-40-17.908-40-40v-36h-200v36c0 22.092-17.908 40-40 40s-40-17.908-40-40v-36h-152c-22.092 0-40-17.908-40-40v-792.001c0-22.093 17.908-40 40-40h944c22.093 0 40 17.907 40 40v792.001c0 22.092-17.907 40-40 40zM944 53.999h-864v476.002h864v-476.002zM944 610h-864v156h112v-36c0-22.092 17.908-40 40-40s40 17.908 40 40v36h200v-36c0-22.092 17.907-40 40-40s40 17.908 40 40v36h200v-36c0-22.092 17.907-40 40-40s40 17.908 40 40v36h112v-156z" />
<glyph unicode="&#xe904;" glyph-name="chevron-down-1" d="M752.917 591.085c8.329 8.332 21.833 8.332 30.165 0s8.333-21.836 0-30.167l-256-256.001c-8.333-8.329-21.837-8.329-30.165 0l-256.001 256.001c-8.332 8.331-8.332 21.836 0 30.167s21.836 8.332 30.167 0l240.917-240.915 240.917 240.915z" />
<glyph unicode="&#xe905;" glyph-name="chevron-down" d="M752.917 591.085c8.333 8.332 21.837 8.332 30.165 0 8.333-8.331 8.333-21.836 0-30.167l-256-256.001c-8.329-8.329-21.833-8.329-30.165 0l-256 256.001c-8.331 8.331-8.331 21.836 0 30.167s21.836 8.332 30.167 0l240.916-240.915 240.917 240.915z" />
<glyph unicode="&#xe906;" glyph-name="chevron-left" d="M655.083 719.085c-8.333 8.332-21.837 8.332-30.165 0l-256.002-255.998c-8.331-8.333-8.331-21.837 0-30.17l256.002-256c8.329-8.329 21.833-8.329 30.165 0 8.333 8.333 8.333 21.837 0 30.17l-240.917 240.913 240.917 240.918c8.333 8.331 8.333 21.836 0 30.167z" />
<glyph unicode="&#xe907;" glyph-name="chevron-right" d="M368.918 719.085c8.331 8.332 21.836 8.332 30.167 0l255.998-255.998c8.333-8.333 8.333-21.837 0-30.17l-255.998-256c-8.331-8.329-21.836-8.329-30.167 0-8.331 8.333-8.331 21.837 0 30.17l240.917 240.913-240.917 240.918c-8.331 8.331-8.331 21.836 0 30.167z" />
<glyph unicode="&#xe908;" glyph-name="cloud" d="M193.107 541.639c0.716 48.298 9.816 93.802 29.918 136.801 58.406 124.928 188.342 197.018 327.157 181.41 131.746-14.825 241.314-114.799 271.364-248.268 2.014-8.944 5.457-13.148 14.178-16.077 98.095-33.071 159.676-123.718 153.749-225.483-5.679-99.26-78.285-182.66-177.856-203.772-14.618-2.957-29.491-4.454-44.407-4.471-4.126-0.158-8.239 0.521-12.096 1.993-3.857 1.476-7.373 3.721-10.338 6.596-2.965 2.871-5.312 6.319-6.908 10.129-1.591 3.806-2.398 7.902-2.364 12.028-0.358 17.89 11.179 31.305 30.161 32.043 56.909 2.551 102.972 24.934 134.677 73.075 59.925 91.051 10.714 214.814-95.275 240.508-36.203 8.788-36.651 9.257-42.778 46.599-9.813 60.464-41.131 115.35-88.196 154.559-47.061 39.209-106.701 60.103-167.94 58.838-61.244-1.265-119.968-24.605-165.371-65.725s-74.428-97.252-81.736-158.070c-2.236-18.201-1.23-36.783-1.543-55.184-0.447-26.564-9.839-36.83-36.246-39.198-68.826-6.174-115.424-50.402-122.669-116.454-7.021-64.085 41.501-126.985 105.295-136.397 7.379-1.075 14.848-1.613 22.361-2.372 19.252-1.988 32.132-15.829 30.969-33.271s-15.093-30.455-34.48-29.897c-58.383 1.698-107.33 24.329-144.426 69.564-90.269 109.879-34.77 273.869 103.529 307.12 3.175 0.827 6.462 1.946 11.27 3.377zM543.876 366.131v-15.966c0-90.052 0-180.113 0-270.182 0-4.471 0.201-8.943-0.158-13.414-1.472-19.388-14.733-32.691-32.196-32.538-17.463 0.158-30.345 13.419-31.731 33.050-0.311 4.471-0.132 8.947-0.132 13.419 0 90.052 0 180.113 0 270.178 0 5.265 0 10.526 0 15.787l-3.712 1.882c-17.89-18.278-35.776-36.548-53.666-54.81-5.233-5.321-10.353-10.799-16.010-15.65-13.416-11.494-31.305-11.179-43.267 0.311-12.432 11.853-13.081 30.165-1.453 44.386 2.236 2.684 4.718 5.12 7.177 7.582 37.983 38.012 75.996 76.023 114.037 114.035 21.244 21.175 37.052 21.043 58.496-0.354 38.391-38.306 76.851-76.54 114.889-115.204 6.003-5.85 10.59-12.992 13.414-20.881 4.181-13.218-3.085-27.46-15.070-34.257s-26.833-5.367-38.417 5.7c-19.383 18.603-38.255 37.722-57.084 56.887-3.55 4.164-6.771 8.597-9.638 13.257l-5.478-3.217z" />
<glyph unicode="&#xe909;" glyph-name="download" d="M189.921 284.156c22.621 0 40.96-18.338 40.96-40.96v-81.92c0-10.863 4.315-21.278 11.998-28.962 7.68-7.68 18.098-11.998 28.962-11.998h491.521c10.859 0 21.278 4.314 28.962 11.998s11.998 18.099 11.998 28.962v81.92c0 22.622 18.334 40.96 40.96 40.96 22.622 0 40.96-18.338 40.96-40.96v-81.92c0-32.589-12.945-63.842-35.994-86.886-23.044-23.044-54.302-35.994-86.886-35.994h-491.521c-32.589 0-63.845 12.945-86.89 35.994-23.043 23.044-35.99 54.298-35.99 86.886v81.92c0 22.622 18.338 40.96 40.96 40.96zM517.594 816.635c22.622 0 40.956-18.338 40.96-40.958v-392.624l134.874 134.874c15.991 15.992 41.92 15.983 57.916 0 16-15.996 16-41.92 0-57.916l-204.791-204.834c-1.527-1.523-3.183-2.85-4.873-4.083-0.461-0.333-0.905-0.683-1.378-0.998-0.41-0.277-0.828-0.533-1.25-0.794-0.759-0.469-1.536-0.913-2.334-1.331-3.059-1.621-6.281-2.795-9.583-3.584-0.499-0.119-0.99-0.273-1.498-0.375-5.321-1.058-10.807-1.067-16.124 0-0.508 0.102-1.003 0.256-1.502 0.375-3.379 0.811-6.669 2.027-9.792 3.708-0.324 0.175-0.64 0.358-0.96 0.542-1.937 1.109-3.81 2.381-5.581 3.831-1.054 0.862-2.082 1.749-3.042 2.709l-204.792 204.834c-15.991 15.996-15.994 41.924 0 57.916 15.994 15.988 41.922 15.989 57.917 0l134.873-134.874v392.624c0.004 22.618 18.342 40.955 40.96 40.958z" />
<glyph unicode="&#xe90a;" glyph-name="edit" d="M867.2 730.88l-72.32 72.32c-38.4 38.4-100.8 38.4-139.2 0l-121.28-121.6-358.080-357.76c-31.36-31.36-48.32-72.64-48.32-116.8v-111.040c0-17.6 14.4-32 32-32h111.040c44.16 0 85.44 17.28 116.8 48.32l479.36 479.36c18.56 18.56 28.8 43.2 28.8 69.44s-10.24 50.88-28.8 69.44v0.32zM342.4 157.76c-19.2-19.2-44.48-29.76-71.36-29.76h-79.040v79.040c0 26.88 10.56 52.48 29.76 71.36l335.36 335.040 120.96-120.96-335.36-335.36-0.32 0.64zM822.080 637.12l-98.56-98.88-120.96 120.96 98.56 98.88c13.44 13.44 35.2 13.44 48.64 0l72.32-72.32c6.4-6.4 9.92-15.040 9.92-24.32s-3.52-17.6-9.92-24.32zM832 128h-320c-17.6 0-32-14.4-32-32s14.4-32 32-32h320c17.6 0 32 14.4 32 32s-14.4 32-32 32z" />
<glyph unicode="&#xe90b;" glyph-name="friend" d="M460.292 504.883c38.775 0 76.676 11.345 108.915 32.599 32.235 21.254 57.361 51.462 72.201 86.805 14.835 35.343 18.718 74.234 11.153 111.754-7.561 37.52-26.231 71.985-53.649 99.035s-62.345 45.472-100.373 52.935c-38.029 7.463-77.444 3.633-113.265-11.007s-66.438-39.431-87.978-71.239c-21.541-31.808-33.038-69.204-33.038-107.459 0.061-51.28 20.734-100.443 57.485-136.704s86.578-56.66 138.55-56.72zM460.292 823.462c25.088 0 49.613-7.34 70.473-21.092s37.12-33.299 46.72-56.168c9.6-22.869 12.113-48.034 7.219-72.312s-16.977-46.578-34.718-64.081c-17.737-17.504-40.341-29.423-64.947-34.252s-50.108-2.351-73.288 7.122c-23.178 9.473-42.989 25.514-56.927 46.096s-21.378 44.779-21.378 69.533c0.037 33.182 13.413 64.995 37.193 88.458s56.023 36.661 89.652 36.697zM171.59 174.020c0-71.134 31.043-101.491 103.784-101.491h322.881c9.178 0 17.975-3.597 24.465-9.997 6.485-6.4 10.133-15.083 10.133-24.137s-3.648-17.737-10.133-24.137c-6.49-6.4-15.287-9.997-24.465-9.997h-322.881c-111.533 0-172.973 60.301-172.973 169.758 0 121.148 69.466 262.596 265.225 262.596h184.506c61.82 2.458 122.594-16.277 172.002-53.018 3.665-2.765 6.733-6.221 9.028-10.167 2.291-3.951 3.759-8.311 4.318-12.826 0.559-4.518 0.196-9.101-1.067-13.478-1.263-4.373-3.396-8.461-6.285-12.011-2.884-3.55-6.46-6.494-10.513-8.661s-8.508-3.511-13.099-3.955c-4.591-0.444-9.225 0.021-13.628 1.37s-8.491 3.55-12.019 6.481c-37.227 26.859-82.679 40.277-128.738 37.999h-184.506c-26.341 2.005-52.809-1.655-77.577-10.726s-47.246-23.339-65.883-41.813c-18.637-18.475-32.989-40.721-42.067-65.199-9.077-24.482-12.663-50.611-10.509-76.591zM955.733 129.417c0-9.050-3.644-17.732-10.133-24.132-6.485-6.404-15.283-10.001-24.461-10.001h-57.655v-56.887c0-9.054-3.648-17.737-10.133-24.137-6.49-6.4-15.287-9.997-24.461-9.997-9.178 0-17.975 3.597-24.465 9.997-6.485 6.4-10.133 15.083-10.133 24.137v56.887h-57.655c-9.178 0-17.975 3.597-24.461 10.001-6.49 6.4-10.133 15.083-10.133 24.132 0 9.054 3.644 17.737 10.133 24.137 6.485 6.404 15.283 9.997 24.461 9.997h57.655v56.892c0 9.050 3.648 17.732 10.133 24.137 6.49 6.4 15.287 9.997 24.465 9.997 9.173 0 17.971-3.597 24.461-9.997 6.485-6.404 10.133-15.087 10.133-24.137v-56.892h57.655c9.178 0 17.975-3.593 24.461-9.997 6.49-6.4 10.133-15.083 10.133-24.137z" />
<glyph unicode="&#xe90c;" glyph-name="layout" d="M896 928h-768c-53 0-96-43-96-96v-768c0-53.001 43-96 96-96h768c53.001 0 96 42.999 96 96v768c0 53-42.999 96-96 96zM128 864h768c17.6 0 32-14.4 32-32v-128h-832v128c0 17.6 14.4 32 32 32zM544 640h384v-272h-384v272zM96 64v576h384v-608h-352c-17.6 0-32 14.4-32 32zM896 32h-352v272h384v-240c0-17.6-14.4-32-32-32z" />
<glyph unicode="&#xe90d;" glyph-name="link" d="M551.168 252.147l-156.678-156.681c0 0 0 0-0.004 0 0 0 0-0.004-0.003-0.004-64.791-64.794-170.22-64.798-235.017 0-31.391 31.39-48.674 73.126-48.674 117.513 0 44.382 17.283 86.11 48.663 117.5 0.004 0.004 0.008 0.009 0.011 0.013l156.677 156.681c21.63 21.632 21.63 56.709-0.004 78.339-21.63 21.63-56.707 21.63-78.34 0l-156.677-156.679c-0.011-0.013-0.022-0.026-0.033-0.038-52.29-52.309-81.088-121.852-81.088-195.814 0-73.984 28.809-143.539 81.125-195.853 54-53.999 124.924-80.998 195.853-80.998s141.856 26.999 195.85 80.998c0.004 0 0.004 0.004 0.004 0.004l156.676 156.681c21.628 21.632 21.628 56.708-0.004 78.34-21.628 21.632-56.7 21.632-78.336 0zM1024 683.020c0 73.983-28.813 143.537-81.131 195.853-107.994 107.992-283.712 107.988-391.701 0 0-0.007-0.009-0.011-0.013-0.018l-156.673-156.669c-21.634-21.63-21.634-56.71 0-78.341 10.821-10.82 24.995-16.227 39.174-16.227 14.174 0 28.352 5.41 39.168 16.227l156.672 156.67c0.004 0.007 0.013 0.011 0.017 0.018 64.794 64.791 170.219 64.794 235.017 0 31.39-31.391 48.678-73.126 48.678-117.513 0-44.383-17.28-86.11-48.666-117.501l-0.013-0.011-156.676-156.68c-21.628-21.632-21.628-56.708 0.004-78.34 10.816-10.816 24.994-16.226 39.168-16.226 14.178 0 28.356 5.41 39.172 16.226l156.676 156.681c0.013 0.009 0.021 0.026 0.034 0.034 52.288 52.31 81.092 121.853 81.092 195.817zM316.15 252.147c10.817-10.816 24.995-16.226 39.168-16.226 14.177 0 28.355 5.41 39.172 16.226l313.363 313.363c21.632 21.63 21.632 56.707 0 78.34-21.632 21.63-56.708 21.63-78.34 0l-313.363-313.359c-21.634-21.636-21.634-56.713 0-78.345z" />
<glyph unicode="&#xe90e;" glyph-name="minus" d="M810.667 469.333c11.78 0 21.333-9.553 21.333-21.333s-9.553-21.333-21.333-21.333h-597.333c-11.782 0-21.333 9.553-21.333 21.333s9.551 21.333 21.333 21.333h597.333z" />
<glyph unicode="&#xe90f;" glyph-name="music" d="M1024 626.297v119.704c0 10.084-5.065 19.494-13.483 25.044-8.422 5.552-19.063 6.502-28.335 2.53l-420.002-180c-11.029-4.728-18.18-15.574-18.18-27.574v-413.787c-25.788 15.403-57.165 23.787-90.001 23.787-38.501 0-75.029-11.49-102.851-32.358-29.962-22.473-47.148-54.417-47.148-87.642s17.186-65.169 47.148-87.642c27.822-20.864 64.35-32.358 102.851-32.358 38.502 0 75.029 11.494 102.852 32.358 29.965 22.473 47.147 54.417 47.147 87.642v370.219l360.004 154.286v-248.294c-25.792 15.407-57.169 23.791-90.001 23.791-38.502 0-75.029-11.494-102.852-32.363-29.965-22.473-47.147-54.417-47.147-87.637 0-33.225 17.182-65.169 47.147-87.642 27.823-20.868 64.35-32.358 102.852-32.358s75.029 11.49 102.852 32.358c29.961 22.473 47.147 54.417 47.147 87.642 0 0 0 390.191 0 390.295zM453.999-3.998c-48.785 0-89.999 27.473-89.999 59.998s41.214 60.002 89.999 60.002c48.785 0 90.001-27.477 90.001-60.002s-41.216-59.998-90.001-59.998zM603.998 491.494v54.724l360.004 154.286v-54.722l-360.004-154.288zM874.001 176c-48.785 0-90.001 27.477-90.001 60.002 0 32.521 41.216 59.998 90.001 59.998s90.001-27.477 90.001-59.998c0-32.525-41.216-60.002-90.001-60.002zM420 630.005c0-38.702-36.998-84.46-51.212-98.788-11.716-11.716-11.716-30.711 0-42.428 11.714-11.716 30.71-11.716 42.426 0 7.042 7.040 68.786 70.822 68.786 141.213 0 56.402-32.294 128.066-95.998 213-45.73 60.97-90.838 106.264-92.782 108.208-18.72 18.732-51.22 5.59-51.22-21.206v-413.789c-25.788 15.407-57.166 23.789-90 23.789-38.502 0-75.030-11.493-102.852-32.361-29.962-22.473-47.148-54.413-47.148-87.637s17.186-65.169 47.148-87.642c27.822-20.868 64.35-32.358 102.852-32.358s75.030 11.49 102.852 32.358c29.962 22.473 47.148 54.417 47.148 87.642v432.326c54.102-64.394 120-158.002 120-222.328zM150 360.004c-48.786 0-90 27.477-90 60.002 0 32.521 41.214 59.998 90 59.998s90-27.477 90-59.998c0-32.525-41.214-60.002-90-60.002z" />
<glyph unicode="&#xe910;" glyph-name="place" d="M854.080 710.398c-63.040 132.16-192.96 215.68-339.2 217.6-146.56 1.92-276.48-78.72-341.76-211.2-67.84-137.28-51.84-296.322 42.24-415.682l242.88-308.48c12.48-15.68 31.040-24.64 50.88-24.64s38.4 8.96 50.88 24.64l249.28 316.8c90.56 115.2 107.52 268.482 44.8 400.642v0.32zM759.36 349.116l-250.56-316.8-242.88 308.48c-78.4 99.52-91.84 232.962-35.2 347.522 54.4 110.080 158.4 175.36 278.72 175.36h4.8c123.52-1.92 229.12-69.44 282.24-181.12s39.36-236.162-37.12-333.442zM509.12 730.875c-96.32 0-174.72-78.4-174.72-174.72s78.4-174.719 174.72-174.719c96.32 0 174.72 78.4 174.72 174.719s-78.4 174.72-174.72 174.72zM509.12 445.756c-61.12 0-110.72 49.6-110.72 110.719s49.6 110.72 110.72 110.72c61.12 0 110.72-49.6 110.72-110.72s-49.6-110.719-110.72-110.719z" />
<glyph unicode="&#xe911;" glyph-name="play" d="M853.333 448l-640 369.504v-739.011l640 369.506z" />
<glyph unicode="&#xe912;" glyph-name="plus" d="M512 768c11.78 0 21.333-9.551 21.333-21.333v-277.333h277.333c11.78 0 21.333-9.553 21.333-21.333s-9.553-21.333-21.333-21.333h-277.333v-277.333c0-11.78-9.553-21.333-21.333-21.333s-21.333 9.553-21.333 21.333v277.333h-277.333c-11.782 0-21.333 9.553-21.333 21.333s9.551 21.333 21.333 21.333h277.333v277.333c0 11.782 9.553 21.333 21.333 21.333z" />
<glyph unicode="&#xe913;" glyph-name="privacy" d="M736 576v105.28c-0.085 56.921-22.733 111.487-62.985 151.736-40.247 40.25-94.814 62.899-151.735 62.984h-18.56c-56.922-0.084-111.487-22.734-151.736-62.984s-62.899-94.815-62.984-151.736v-105.28c-25.461 0-49.879-10.114-67.882-28.118-18.004-18.005-28.118-42.423-28.118-67.882v-297.6c0.084-48.35 19.329-94.694 53.517-128.883s80.533-53.431 128.883-53.517h275.2c48.35 0.085 94.694 19.328 128.883 53.517s53.431 80.533 53.517 128.883v297.6c0 25.459-10.116 49.877-28.117 67.882-18.005 18.004-42.423 28.118-67.883 28.118zM352 681.28c0 39.974 15.879 78.31 44.145 106.575s66.601 44.145 106.575 44.145h18.56c39.974 0 78.31-15.879 106.577-44.145 28.262-28.265 44.143-66.601 44.143-106.575v-105.28h-320v105.28zM768 182.4c0-31.403-12.476-61.517-34.679-83.721s-52.318-34.679-83.721-34.679h-275.2c-31.402 0-61.517 12.476-83.721 34.679s-34.679 52.318-34.679 83.721v297.6c0 8.486 3.372 16.627 9.373 22.626 6.001 6.003 14.141 9.374 22.627 9.374h448c8.486 0 16.627-3.371 22.626-9.374 6.003-5.999 9.374-14.14 9.374-22.626v-297.6zM544 296.96v-104.96c0-8.486-3.371-16.627-9.374-22.626-5.999-6.003-14.14-9.374-22.626-9.374s-16.627 3.371-22.626 9.374c-6.003 5.999-9.374 14.14-9.374 22.626v104.96c-12.203 7.044-21.739 17.916-27.127 30.933-5.393 13.018-6.34 27.447-2.692 41.058 3.648 13.606 11.682 25.63 22.861 34.21 11.174 8.576 24.87 13.222 38.959 13.222s27.785-4.646 38.959-13.222c11.179-8.58 19.213-20.604 22.861-34.21 3.648-13.611 2.701-28.041-2.692-41.058-5.389-13.018-14.925-23.889-27.127-30.933z" />
<glyph unicode="&#xe914;" glyph-name="protect" d="M512-4.561c-12.715-0.004-25.216 3.26-36.309 9.472l-121.813 67.627c-78.146 43.447-143.26 106.991-188.599 184.055s-69.258 164.847-69.278 254.259v198.868c-0.069 17.424 5.986 34.319 17.107 47.732s26.601 22.494 43.736 25.655c29.366 5.865 58.336 13.56 86.741 23.040 13.525 4.267 28.629 8.747 46.037 13.867 65.165 19.225 128.57 43.976 189.525 73.984 10.214 5.052 21.457 7.68 32.853 7.68s22.639-2.628 32.853-7.68c60.958-30.008 124.361-54.759 189.525-73.984 17.408-5.12 32.512-9.728 46.037-13.867 28.407-9.48 57.378-17.175 86.741-23.040 17.135-3.16 32.614-12.241 43.738-25.655 11.119-13.414 17.173-30.308 17.105-47.732v-198.868c-0.021-89.412-23.936-177.195-69.278-254.259-45.338-77.065-110.451-140.608-188.599-184.055l-121.856-67.669c-11.085-6.187-23.569-9.429-36.267-9.429zM507.435 836.568c-64.239-31.602-131.053-57.667-199.722-77.909-17.067-5.077-32.043-9.643-45.397-13.739-30.841-10.228-62.291-18.521-94.165-24.832-2.346-0.521-4.44-1.839-5.926-3.729s-2.271-4.236-2.224-6.639v-198.868c0.023-77.986 20.888-154.551 60.436-221.764s96.342-122.637 164.502-160.529l121.898-67.712c1.57-0.883 3.341-1.348 5.141-1.348s3.571 0.465 5.141 1.348l121.941 67.755c68.16 37.892 124.954 93.316 164.501 160.529 39.552 67.213 60.416 143.778 60.437 221.764v198.825c0.047 2.403-0.738 4.749-2.223 6.639s-3.58 3.208-5.926 3.729c-31.872 6.311-63.322 14.604-94.165 24.832-13.355 4.267-28.245 8.533-45.397 13.739-68.668 20.243-135.484 46.307-199.723 77.909-1.412 0.726-2.978 1.105-4.565 1.105s-3.153-0.379-4.565-1.105zM469.333 373.342c-4.203-0.013-8.367 0.811-12.245 2.423-3.883 1.613-7.407 3.977-10.368 6.963l-85.332 85.333c-5.652 6.063-8.73 14.089-8.584 22.379s3.505 16.201 9.368 22.063c5.863 5.862 13.773 9.22 22.063 9.365 8.29 0.149 16.313-2.931 22.38-8.58l62.719-62.677 148.053 148.009c6.067 5.652 14.093 8.73 22.383 8.584s16.196-3.505 22.063-9.368c5.862-5.863 9.22-13.772 9.365-22.063s-2.931-16.314-8.585-22.38l-170.667-170.665c-2.957-2.987-6.481-5.35-10.364-6.963s-8.047-2.436-12.25-2.423z" />
<glyph unicode="&#xe915;" glyph-name="purchase" d="M768 224c-18.987 0-37.547-5.632-53.333-16.179s-28.092-25.54-35.358-43.085c-7.266-17.54-9.169-36.843-5.466-55.467 3.708-18.62 12.847-35.725 26.274-49.152s30.532-22.571 49.152-26.274c18.624-3.703 37.926-1.801 55.467 5.466 17.545 7.266 32.538 19.571 43.085 35.358s16.179 34.347 16.179 53.333c-0.030 25.451-10.15 49.856-28.147 67.853s-42.402 28.117-67.853 28.147zM768 96c-6.327 0-12.514 1.877-17.779 5.393-5.261 3.516-9.361 8.512-11.785 14.362-2.423 5.845-3.055 12.279-1.822 18.487 1.237 6.208 4.284 11.908 8.759 16.384s10.176 7.526 16.384 8.759c6.208 1.233 12.642 0.602 18.487-1.822 5.85-2.423 10.846-6.524 14.362-11.785 3.516-5.265 5.393-11.452 5.393-17.779-0.013-8.482-3.388-16.614-9.387-22.613s-14.131-9.374-22.613-9.387zM576 224h-256c-8.487 0-16.626 3.371-22.627 9.374-6.001 5.999-9.373 14.14-9.373 22.626s3.372 16.627 9.373 22.626c6.001 6.003 14.141 9.374 22.627 9.374h512c7.573 0 14.899 2.688 20.681 7.582 5.777 4.894 9.634 11.682 10.88 19.149l64 384.002c0.768 4.585 0.525 9.28-0.713 13.762-1.233 4.481-3.426 8.64-6.43 12.186s-6.746 6.397-10.961 8.351c-4.215 1.955-8.811 2.967-13.457 2.968h-512c-8.487 0-16.626-3.372-22.627-9.373s-9.373-14.141-9.373-22.627c0-8.487 3.372-16.626 9.373-22.627s14.141-9.373 22.627-9.373h474.219l-53.329-320h-398.72l-184.202 491.235c-2.289 6.099-6.385 11.355-11.739 15.065s-11.714 5.699-18.228 5.7h-64c-8.487 0-16.626-3.372-22.627-9.373s-9.373-14.141-9.373-22.627c0-8.487 3.372-16.626 9.373-22.627s14.141-9.373 22.627-9.373h41.827l168-448h-17.827c-23.316 0.166-45.891-8.188-63.483-23.492s-28.989-36.506-32.050-59.622c-3.062-23.117 2.423-46.554 15.424-65.911 13.001-19.354 32.622-33.297 55.178-39.206-6.015-14.455-8.41-30.161-6.977-45.751s6.651-30.592 15.201-43.708c8.55-13.116 20.172-23.945 33.859-31.548s29.021-11.75 44.674-12.079c15.653-0.329 31.149 3.17 45.144 10.189 13.99 7.019 26.061 17.353 35.153 30.097s14.938 27.516 17.028 43.029c2.086 15.518 0.354 31.309-5.047 46.003h101.897c8.486 0 16.627 3.371 22.626 9.374 6.003 5.999 9.374 14.14 9.374 22.626s-3.371 16.627-9.374 22.626c-5.999 6.003-14.14 9.374-22.626 9.374zM416 128c0-6.327-1.877-12.514-5.393-17.779-3.516-5.261-8.514-9.361-14.361-11.785s-12.281-3.055-18.489-1.822c-6.207 1.237-11.909 4.284-16.384 8.759s-7.523 10.176-8.758 16.384c-1.235 6.208-0.601 12.642 1.821 18.487 2.422 5.85 6.524 10.846 11.786 14.362s11.449 5.393 17.778 5.393c8.483-0.013 16.617-3.388 22.615-9.387s9.373-14.131 9.385-22.613z" />
<glyph unicode="&#xe916;" glyph-name="qrcode" d="M288 64h-128c-8.487 0-16.626 3.371-22.627 9.374-6.001 5.999-9.373 14.14-9.373 22.626v128c0 8.486-3.372 16.627-9.373 22.626-6.001 6.003-14.141 9.374-22.627 9.374s-16.626-3.371-22.627-9.374c-6.001-5.999-9.373-14.14-9.373-22.626v-128c0-25.459 10.114-49.877 28.118-67.883 18.004-18.001 42.421-28.117 67.882-28.117h128c8.487 0 16.626 3.371 22.627 9.374 6.001 5.999 9.373 14.14 9.373 22.626s-3.372 16.627-9.373 22.626c-6.001 6.003-14.141 9.374-22.627 9.374zM928 256c-8.486 0-16.627-3.371-22.626-9.374-6.003-5.999-9.374-14.14-9.374-22.626v-128c0-8.486-3.371-16.627-9.374-22.626-5.999-6.003-14.14-9.374-22.626-9.374h-128c-8.486 0-16.627-3.371-22.626-9.374-6.003-5.999-9.374-14.14-9.374-22.626s3.371-16.627 9.374-22.626c5.999-6.003 14.14-9.374 22.626-9.374h128c25.459 0 49.877 10.116 67.883 28.117 18.001 18.005 28.117 42.423 28.117 67.883v128c0 8.486-3.371 16.627-9.374 22.626-5.999 6.003-14.14 9.374-22.626 9.374zM96 640c8.487 0 16.626 3.372 22.627 9.373s9.373 14.141 9.373 22.627v128c0 8.487 3.372 16.626 9.373 22.627s14.141 9.373 22.627 9.373h128c8.487 0 16.626 3.372 22.627 9.373s9.373 14.141 9.373 22.627c0 8.487-3.372 16.626-9.373 22.627s-14.141 9.373-22.627 9.373h-128c-25.461 0-49.879-10.114-67.882-28.118s-28.118-42.421-28.118-67.882v-128c0-8.487 3.372-16.626 9.373-22.627s14.141-9.373 22.627-9.373zM864 896h-128c-8.486 0-16.627-3.372-22.626-9.373-6.003-6.001-9.374-14.141-9.374-22.627s3.371-16.626 9.374-22.627c5.999-6.001 14.14-9.373 22.626-9.373h128c8.486 0 16.627-3.372 22.626-9.373 6.003-6.001 9.374-14.141 9.374-22.627v-128c0-8.487 3.371-16.626 9.374-22.627 5.999-6.001 14.14-9.373 22.626-9.373s16.627 3.372 22.626 9.373c6.003 6.001 9.374 14.141 9.374 22.627v128c0 25.461-10.116 49.879-28.117 67.882-18.005 18.004-42.423 28.118-67.883 28.118zM352 352h-96c-16.974 0-33.253-6.741-45.255-18.743s-18.745-28.284-18.745-45.257v-96c0-16.973 6.743-33.254 18.745-45.257s28.281-18.743 45.255-18.743h96c16.974 0 33.253 6.741 45.255 18.743s18.745 28.284 18.745 45.257v96c0 16.973-6.743 33.254-18.745 45.257s-28.281 18.743-45.255 18.743zM256 192v96h96v-96h-96zM832 192v96c0 16.973-6.741 33.254-18.743 45.257s-28.284 18.743-45.257 18.743h-96c-16.973 0-33.254-6.741-45.257-18.743s-18.743-28.284-18.743-45.257v-96c0-16.973 6.741-33.254 18.743-45.257s28.284-18.743 45.257-18.743h96c16.973 0 33.254 6.741 45.257 18.743s18.743 28.284 18.743 45.257zM672 288h96v-96h-96v96zM480 480h-256c-8.487 0-16.626-3.371-22.627-9.374-6.001-5.999-9.373-14.14-9.373-22.626s3.372-16.627 9.373-22.626c6.001-6.003 14.141-9.374 22.627-9.374h256v-256c0-8.486 3.371-16.627 9.374-22.626 5.999-6.003 14.14-9.374 22.626-9.374s16.627 3.371 22.626 9.374c6.003 5.999 9.374 14.14 9.374 22.626v256c0 16.973-6.741 33.254-18.743 45.257s-28.284 18.743-45.257 18.743zM192 704v-128c0-8.487 3.372-16.626 9.373-22.627s14.141-9.373 22.627-9.373c8.487 0 16.626 3.372 22.627 9.373s9.373 14.141 9.373 22.627v128h128c8.487 0 16.626 3.372 22.627 9.373s9.373 14.141 9.373 22.627c0 8.487-3.372 16.626-9.373 22.627s-14.141 9.373-22.627 9.373h-128c-16.974 0-33.253-6.743-45.255-18.745s-18.745-28.281-18.745-45.255zM672 544h96c16.973 0 33.254 6.743 45.257 18.745s18.743 28.281 18.743 45.255v96c0 16.974-6.741 33.253-18.743 45.255s-28.284 18.745-45.257 18.745h-96c-16.973 0-33.254-6.743-45.257-18.745s-18.743-28.281-18.743-45.255v-96c0-16.974 6.741-33.253 18.743-45.255s28.284-18.745 45.257-18.745zM672 704h96v-96h-96v96zM640 416h32c8.486 0 16.627 3.371 22.626 9.374 6.003 5.999 9.374 14.14 9.374 22.626s-3.371 16.627-9.374 22.626c-5.999 6.003-14.14 9.374-22.626 9.374h-32c-8.486 0-16.627-3.371-22.626-9.374-6.003-5.999-9.374-14.14-9.374-22.626s3.371-16.627 9.374-22.626c5.999-6.003 14.14-9.374 22.626-9.374zM768 480c-8.486 0-16.627-3.371-22.626-9.374-6.003-5.999-9.374-14.14-9.374-22.626s3.371-16.627 9.374-22.626c5.999-6.003 14.14-9.374 22.626-9.374h32c8.486 0 16.627 3.371 22.626 9.374 6.003 5.999 9.374 14.14 9.374 22.626s-3.371 16.627-9.374 22.626c-5.999 6.003-14.14 9.374-22.626 9.374h-32zM512 608h-160c-8.487 0-16.626-3.372-22.627-9.373s-9.373-14.141-9.373-22.627c0-8.487 3.372-16.626 9.373-22.627s14.141-9.373 22.627-9.373h160c8.486 0 16.627 3.372 22.626 9.373 6.003 6.001 9.374 14.141 9.374 22.627s-3.371 16.626-9.374 22.627c-5.999 6.001-14.14 9.373-22.626 9.373zM512 768c-8.486 0-16.627-3.372-22.626-9.373-6.003-6.001-9.374-14.141-9.374-22.627v-32c0-8.487 3.371-16.626 9.374-22.627 5.999-6.001 14.14-9.373 22.626-9.373s16.627 3.372 22.626 9.373c6.003 6.001 9.374 14.141 9.374 22.627v32c0 8.487-3.371 16.626-9.374 22.627-5.999 6.001-14.14 9.373-22.626 9.373z" />
<glyph unicode="&#xe917;" glyph-name="quote" d="M808.384 783.896c8.102 0 15.002-6.9 15.002-15v-138c0-8.2-6.899-14.9-15.002-15-2.995 0-6.003-0.117-8.998-0.417-0.789-0.001-1.583-0.068-2.377-0.166-1.297-0.2-2.615-0.408-3.917-0.708-5.197-1-10.21-2.592-15.206-4.292-4.578-1.592 2.197 1.069-2.167-0.917-0.9-0.4-1.933-0.791-2.833-1.292-2.295-1.199-4.595-2.41-6.793-3.708s-4.399-2.709-6.498-4.209c-2.692-1.893-1.997-1.295-4.791-3.791-13.803-12-22.618-26.217-26.918-43.417-1.297-5.388-1.783-8.488-2.082-12.583-0.201-2.6-0.29-5.108-0.29-7.707v-48.708h150.579c29.303-0.303 52.919-23.603 53.419-53.001 0.013-0.512-0.085-1.007-0.124-1.502v-262.793c-0.004-30.396-23.403-54.69-54.003-54.788h-264.875c-22.298 0.299-41.609 13.798-49.707 34.5-4.399 11.298-3.418 24.013-3.418 35.913v340.002c0 17.894 0.811 35.597 3.708 53.292 6.101 37.498 21.504 73.902 44.002 104.5 47.497 64.595 122.897 103.587 203.29 103.792zM345.417 783.896c8.093-0.010 15-6.906 15-15v-138c0-8.194-6.907-14.891-15-15-2.995 0-6.005-0.118-9-0.417-0.8 0-1.617-0.067-2.417-0.166-1.3-0.2-2.616-0.408-3.916-0.708-5.188-0.999-10.178-2.596-15.167-4.292-4.598-1.599 2.177 1.077-2.208-0.917-0.894-0.397-1.896-0.796-2.792-1.292-2.3-1.2-4.633-2.408-6.833-3.708-2.196-1.298-4.404-2.711-6.5-4.209-2.682-1.887-1.997-1.296-4.791-3.791-13.798-11.999-22.576-26.219-26.875-43.417-1.297-5.393-1.825-8.486-2.125-12.583-0.2-2.6-0.292-5.108-0.292-7.707v-48.708h150.583c29.302-0.303 52.918-23.603 53.417-53.001 0.009-0.341-0.068-0.67-0.085-1.003v-263.292c-0.004-30.387-23.411-54.682-53.998-54.788h-264.917c-22.3 0.299-41.608 13.798-49.708 34.5-4.399 11.298-3.375 24.017-3.375 35.913v340.002c0 17.894 0.768 35.597 3.667 53.292 6.1 37.497 21.502 73.902 44 104.5 47.5 64.6 122.933 103.592 203.333 103.792z" />
<glyph unicode="&#xe918;" glyph-name="search" d="M466.752 877.594c-211.571 0-383.916-172.344-383.916-383.919 0-211.571 172.345-384.252 383.916-384.252 90.368 0 173.483 31.671 239.168 84.254l159.915-159.834c8.073-7.735 18.85-12.002 30.029-11.891 11.179 0.115 21.867 4.604 29.777 12.501 7.91 7.902 12.412 18.581 12.544 29.76 0.128 11.179-4.126 21.965-11.849 30.046l-159.915 159.915c52.625 65.788 84.331 149.030 84.331 239.501 0 211.575-172.429 383.919-384 383.919zM466.752 792.259c165.457 0 298.586-133.129 298.586-298.584 0-165.453-133.129-298.914-298.586-298.914-165.454 0-298.583 133.461-298.583 298.914 0 165.456 133.129 298.584 298.583 298.584z" />
<glyph unicode="&#xe919;" glyph-name="send-email" d="M1008.866 473.937c8.358 0 15.134 6.775 15.134 15.134v191.73c0 0.177-0.021 0.351-0.026 0.529-0.009 0.177-0.013 0.351-0.026 0.529-0.098 1.427-0.397 2.795-0.862 4.084-0.021 0.061-0.030 0.121-0.051 0.181-0.021 0.047-0.047 0.089-0.064 0.135-0.256 0.662-0.55 1.303-0.896 1.917-0.038 0.073-0.085 0.139-0.128 0.212-0.316 0.541-0.666 1.059-1.041 1.556-0.073 0.099-0.145 0.202-0.222 0.301-0.414 0.515-0.858 1.001-1.335 1.457-0.102 0.099-0.209 0.192-0.316 0.289-0.452 0.41-0.922 0.795-1.421 1.148-0.060 0.044-0.119 0.093-0.179 0.135-0.555 0.381-1.143 0.72-1.745 1.027-0.115 0.058-0.235 0.113-0.35 0.167-1.229 0.583-2.543 1.003-3.925 1.239-0.154 0.026-0.303 0.049-0.457 0.069-0.683 0.095-1.378 0.162-2.091 0.162h-727.197c-0.712 0-1.406-0.067-2.092-0.162-0.151-0.020-0.303-0.044-0.454-0.069-1.382-0.234-2.698-0.656-3.925-1.239-0.117-0.054-0.234-0.109-0.349-0.167-0.605-0.307-1.19-0.644-1.745-1.027-0.063-0.043-0.121-0.093-0.182-0.135-0.498-0.353-0.969-0.739-1.418-1.148-0.105-0.097-0.214-0.188-0.317-0.289-0.476-0.456-0.92-0.942-1.334-1.457-0.079-0.097-0.149-0.2-0.224-0.301-0.377-0.496-0.727-1.015-1.041-1.556-0.043-0.073-0.089-0.14-0.129-0.212-0.343-0.614-0.636-1.253-0.892-1.915-0.018-0.047-0.047-0.089-0.065-0.137-0.022-0.061-0.030-0.121-0.052-0.181-0.466-1.292-0.763-2.66-0.861-4.086-0.012-0.176-0.020-0.351-0.026-0.527s-0.026-0.351-0.026-0.531v-88.833c0-8.358 6.774-15.134 15.134-15.134s15.134 6.776 15.134 15.134v55.484l267.314-233.882-267.314-170.752v282.56c0 8.36-6.774 15.136-15.134 15.136s-15.134-6.776-15.134-15.136v-309.090c0-0.132 0.016-0.265 0.020-0.397-0.077-1.634 0.109-3.302 0.587-4.941 1.887-6.455 7.803-10.893 14.527-10.893h727.197c6.724 0 12.642 4.437 14.528 10.893 0.478 1.638 0.661 3.307 0.585 4.941 0.004 0.132 0.021 0.265 0.021 0.397v206.195c0 8.358-6.775 15.134-15.134 15.134s-15.134-6.775-15.134-15.134v-179.665l-267.315 170.756 267.315 233.879v-158.381c0-8.358 6.775-15.134 15.134-15.134zM955.345 231.42h-620.153l252.652 161.391 0.512-0.452c17.289-15.125 37.099-22.686 56.909-22.682 19.81 0 39.629 7.565 56.913 22.682l0.512 0.448 252.655-161.387zM682.249 415.142c-22.81-19.955-51.149-19.955-73.958 0l-9.225 8.068c-0.017 0.021-0.043 0.038-0.060 0.055l-277.056 242.401h646.634l-286.336-250.525zM215.787 546.563h-200.653c-8.36 0-15.134-6.776-15.134-15.132 0-8.358 6.774-15.138 15.134-15.138h200.653c8.36 0 15.134 6.78 15.134 15.138 0 8.356-6.776 15.132-15.134 15.132zM215.787 457.677h-135.715c-8.36 0-15.134-6.775-15.134-15.134s6.774-15.134 15.134-15.134h135.715c8.36 0 15.134 6.775 15.134 15.134s-6.776 15.134-15.134 15.134zM215.787 379.699h-67.857c-8.36 0-15.134-6.775-15.134-15.134s6.774-15.134 15.134-15.134h67.857c8.361 0 15.134 6.775 15.134 15.134s-6.776 15.134-15.134 15.134z" />
<glyph unicode="&#xe91a;" glyph-name="send" d="M55.68 808.875c-7.467 29.824 3.157 61.227 27.136 80.469s56.96 22.741 84.437 9.003l759.893-379.947c26.667-13.312 43.52-40.576 43.52-70.4s-16.853-57.088-43.52-70.4l-759.893-379.947c-27.477-13.739-60.459-10.24-84.437 9.003s-34.603 50.645-27.136 80.469l90.24 360.875-90.24 360.875zM117.76 824.363l92.16-368.597c1.28-5.12 1.28-10.411 0-15.531l-92.16-368.597c-1.365-5.589 0.597-11.477 5.077-15.061s10.667-4.267 15.787-1.707l759.893 379.989c4.992 2.475 8.149 7.552 8.149 13.141s-3.157 10.667-8.149 13.141l-759.893 379.989c-5.12 2.56-11.307 1.877-15.787-1.707s-6.443-9.472-5.077-15.061zM186.412 416c-17.664 0-32 14.336-32 32s14.336 32 32 32h362.666c17.664 0 32-14.336 32-32s-14.336-32-32-32h-362.666z" />
<glyph unicode="&#xe91b;" glyph-name="share" d="M768 448c-76.787 0-145.498-33.958-192.41-87.501l-162.496 100.006c8.32 22.835 13.58 47.134 13.58 72.835 0 16.82-2.408 32.947-6.080 48.665l216 99.673c31.283-38.17 78.195-63.002 131.418-63.002 94.208 0 170.662 76.415 170.662 170.662s-76.467 170.662-170.675 170.662c-94.285 0-170.662-76.415-170.662-170.662 0-10.408 1.293-20.505 3.034-30.335l-215.746-99.585c-38.873 52.66-100.838 87.245-171.29 87.245-117.835 0-213.335-95.488-213.335-213.325s95.5-213.338 213.338-213.338c61.325 0 116.25 26.253 155.162 67.75l162.252-99.84c-12.006-29.658-18.752-61.952-18.752-95.91 0-141.414 114.586-256 256-256 141.338 0 256 114.586 256 256s-114.662 256-256 256zM768 874.662c47.040 0 85.338-38.247 85.338-85.338 0-47.077-38.298-85.325-85.338-85.325s-85.338 38.248-85.338 85.338c0 47.078 38.298 85.325 85.338 85.325zM213.338 405.338c-70.592 0-128 57.408-128 128 0 70.58 57.408 128 128 128 70.58 0 128-57.42 128-128 0-70.592-57.42-128-128-128zM768 21.338c-94.131 0-170.662 76.531-170.662 170.662s76.531 170.662 170.662 170.662c94.131 0 170.662-76.531 170.662-170.662s-76.531-170.662-170.662-170.662z" />
<glyph unicode="&#xe91c;" glyph-name="story" d="M602.944 491.571h62.4c5.325 0 10.432 2.116 14.195 5.884 3.767 3.763 5.884 8.87 5.884 14.195s-2.116 10.432-5.884 14.199c-3.763 3.763-8.87 5.879-14.195 5.879h-62.4c-5.325 0-10.432-2.116-14.199-5.879-3.763-3.767-5.879-8.875-5.879-14.199s2.116-10.432 5.879-14.195c3.767-3.767 8.875-5.884 14.199-5.884zM818.103 531.729h-62.4c-5.325 0-10.432-2.116-14.195-5.879-3.767-3.767-5.884-8.875-5.884-14.199s2.116-10.432 5.884-14.195c3.763-3.767 8.87-5.884 14.195-5.884h62.4c5.325 0 10.432 2.116 14.199 5.884 3.763 3.763 5.879 8.87 5.879 14.195s-2.116 10.432-5.879 14.199c-3.767 3.763-8.875 5.879-14.199 5.879zM602.944 579.802h215.151c5.325 0 10.432 2.115 14.195 5.881 3.767 3.765 5.884 8.872 5.884 14.197s-2.116 10.432-5.884 14.197c-3.763 3.765-8.87 5.881-14.195 5.881h-215.151c-5.325 0-10.432-2.115-14.195-5.881-3.767-3.765-5.879-8.872-5.879-14.197s2.112-10.432 5.879-14.197c3.763-3.765 8.87-5.881 14.195-5.881zM818.095 443.511h-215.151c-2.654 0.026-5.286-0.474-7.744-1.472s-4.698-2.475-6.583-4.339c-1.886-1.869-3.383-4.092-4.403-6.541-1.024-2.449-1.549-5.077-1.549-7.727 0-2.654 0.525-5.282 1.549-7.731 1.020-2.449 2.517-4.672 4.403-6.541 1.886-1.865 4.126-3.341 6.583-4.339s5.090-1.498 7.744-1.472h215.151c5.291 0.055 10.347 2.193 14.067 5.952 3.725 3.763 5.811 8.836 5.811 14.131 0 5.291-2.086 10.364-5.811 14.127-3.721 3.759-8.777 5.897-14.067 5.952zM1003.921 757.019h-74.799v92.542c-0.017 2.727-0.589 5.422-1.677 7.922s-2.671 4.755-4.655 6.627c-1.98 1.872-4.322 3.324-6.878 4.267-2.56 0.943-5.282 1.359-8.009 1.222-238.903-13.574-357.414-89.268-395.904-119.668-38.468 30.4-156.974 106.094-395.886 119.668-2.724 0.138-5.447-0.277-8.006-1.22s-4.901-2.394-6.884-4.267c-1.983-1.872-3.567-4.127-4.655-6.628s-1.659-5.196-1.677-7.923v-92.542h-74.814c-5.324-0.002-10.43-2.118-14.195-5.883s-5.881-8.87-5.883-14.195v-604.602c0.002-5.321 2.118-10.428 5.883-14.191 3.765-3.767 8.871-5.884 14.195-5.884h335.43c3.008 0.009 5.989-0.576 8.77-1.724 2.782-1.143 5.31-2.825 7.44-4.949s3.82-4.651 4.973-7.428c1.153-2.778 1.747-5.756 1.746-8.764 0.026-16.725 6.685-32.755 18.516-44.574s27.869-18.462 44.591-18.47h140.932c8.282-0.009 16.486 1.617 24.141 4.783s14.609 7.808 20.467 13.662c5.858 5.858 10.509 12.809 13.679 20.463 3.17 7.65 4.8 15.855 4.8 24.137 0.017 6.071 2.441 11.887 6.737 16.175 4.297 4.284 10.121 6.694 16.192 6.694h335.428c2.637 0 5.248 0.516 7.684 1.527 2.436 1.007 4.646 2.483 6.511 4.348s3.345 4.079 4.356 6.511c1.007 2.436 1.527 5.047 1.527 7.684v604.6c0 2.637-0.516 5.248-1.527 7.685-1.007 2.437-2.487 4.65-4.352 6.515s-4.079 3.344-6.515 4.353c-2.436 1.009-5.047 1.527-7.684 1.527zM532.079 714.433c10.739 9 36.702 28.49 80.934 48.89 52.907 24.376 142.921 54.774 275.959 64.774v-91c0-0.060-0.021-0.12-0.021-0.16s0.021-0.1 0.021-0.162v-445.153c-47.829 0.026-95.578-3.964-142.737-11.925-93.265-16.085-165.026-46.225-214.157-89.856v524.592zM135.048 828.097c133.040-10 223.052-40.4 275.938-64.774 44.272-20.42 70.256-39.936 80.935-48.87v-524.599c-49.109 43.631-120.871 73.766-214.135 89.852-46.519 7.855-93.609 11.844-140.786 11.917h-1.948l-0.004 536.475zM983.846 152.418h-315.354c-16.717-0.013-32.747-6.652-44.574-18.466s-18.487-27.836-18.517-44.553c0-3.012-0.589-5.99-1.741-8.772s-2.842-5.308-4.971-7.437c-2.129-2.125-4.659-3.81-7.441-4.958-2.786-1.148-5.769-1.732-8.777-1.724h-140.928c-6.076 0-11.904 2.411-16.205 6.699-4.302 4.292-6.726 10.116-6.74 16.192-0.001 8.282-1.635 16.482-4.806 24.132s-7.82 14.601-13.679 20.454c-5.859 5.85-12.814 10.492-20.467 13.658-7.653 3.162-15.855 4.787-24.137 4.783h-315.356v564.434h54.736v-445.74c0.019-2.714 0.585-5.397 1.662-7.889 1.078-2.487 2.646-4.736 4.611-6.609s4.287-3.328 6.828-4.284c2.54-0.956 5.247-1.391 7.959-1.276 2.832 0.141 282.986 12.228 379.642-124.966 7.45-11.2 25.382-11.187 32.828 0 96.661 137.199 376.815 125.107 379.627 124.966 2.714-0.115 5.423 0.316 7.966 1.271 2.543 0.951 4.864 2.411 6.831 4.279 1.971 1.873 3.541 4.122 4.621 6.613s1.643 5.175 1.664 7.893v445.74h54.711l0.004-564.443zM384.080 623.134c-8.29 2.522-16.998 3.376-25.62 2.514s-16.989-3.422-24.616-7.535c-7.649-4.218-14.532-9.694-20.36-16.2-5.838 6.519-12.735 12.003-20.4 16.224-7.62 4.105-15.977 6.66-24.589 7.518s-17.309 0.002-25.589-2.518c-34.374-10.222-56.34-44.514-53.448-83.388 1.4-18.752 8.2-37.568 20.2-55.897 15.942-24.354 39.294-47.023 71.34-69.329 28.6-22.353 36.418-22.259 64.974-0.021 32.064 22.327 55.4 45.001 71.338 69.35 12.002 18.33 18.816 37.124 20.198 55.897 2.893 38.87-19.074 73.162-53.428 83.384zM397.48 542.718c-0.527-6.228-1.926-12.35-4.156-18.191-2.499-6.558-5.718-12.821-9.6-18.671-13.070-19.959-32.928-39.074-60.676-58.368-3.166-2.321-7.416-5.282-9.558-6.767-2.112 1.463-6.384 4.476-9.536 6.746-27.768 19.315-47.626 38.43-60.698 58.389-8.112 12.386-12.87 25.139-13.734 36.862-1.224 16.264 6.044 36.342 24.838 41.926 3.229 1.001 6.624 1.354 9.99 1.040s6.637-1.289 9.626-2.868c8.634-4.698 16.184-14.336 20.702-26.444 1.428-3.837 3.996-7.146 7.359-9.483s7.36-3.589 11.454-3.589c4.094 0 8.091 1.252 11.454 3.589s5.931 5.645 7.359 9.483c4.518 12.108 12.068 21.746 20.66 26.422 2.993 1.587 6.271 2.568 9.645 2.886s6.776-0.035 10.013-1.036c18.808-5.584 26.056-25.662 24.85-41.926h0.008z" />
<glyph unicode="&#xe91d;" glyph-name="upload" d="M551.386 347.716v-277.197c0-10.445-4.151-20.463-11.537-27.849s-17.404-11.537-27.849-11.537c-10.445 0-20.463 4.151-27.849 11.537s-11.537 17.404-11.537 27.849v277.197l-23.898-28.676c-3.311-3.972-7.369-7.258-11.947-9.66-4.582-2.406-9.587-3.883-14.738-4.352s-10.343 0.077-15.281 1.617c-4.938 1.536-9.525 4.032-13.498 7.343s-7.256 7.369-9.661 11.947c-2.404 4.578-3.884 9.587-4.352 14.737s0.081 10.342 1.618 15.283c1.537 4.937 4.032 9.523 7.343 13.495l93.537 112.256c3.695 4.437 8.32 8.004 13.551 10.453 5.227 2.449 10.931 3.721 16.704 3.721s11.477-1.271 16.704-3.721c5.231-2.449 9.856-6.016 13.551-10.453l93.555-112.252c3.349-3.968 5.884-8.559 7.454-13.513 1.57-4.949 2.146-10.163 1.694-15.339s-1.924-10.21-4.331-14.814c-2.411-4.599-5.705-8.683-9.694-12.006-3.989-3.328-8.597-5.828-13.564-7.364-4.958-1.536-10.176-2.078-15.347-1.587-5.171 0.486-10.197 1.993-14.784 4.433-4.587 2.436-8.644 5.76-11.942 9.775l-23.902 28.676zM869.030 602.318c-2.47 55.2-21.798 108.317-55.373 152.2-41.075 53.48-101.001 89.2-166.686 103.294-116.911 25.066-241.49-18.478-322.448-105.216-31.721-33.709-55.831-73.838-70.7-117.672l-3.824-11.404c-67.526-1.865-131.604-30.237-178.373-78.979-46.77-48.741-72.472-113.936-71.548-181.481s28.401-132.011 76.487-179.456c48.086-47.445 112.916-74.052 180.468-74.069h144.2c10.445 0 20.463 4.151 27.848 11.537s11.537 17.404 11.537 27.849c0 10.445-4.151 20.463-11.537 27.849s-17.402 11.533-27.848 11.533h-144.2c-47.177 0.158-92.368 19.012-125.671 52.425-33.303 33.417-52.004 78.669-52.004 125.85 0 47.177 18.7 92.429 52.004 125.845 33.303 33.412 78.494 52.266 125.671 52.424h21.346c8.256 0.001 16.303 2.597 23.005 7.42s11.717 11.63 14.339 19.459l12.8 38.2c11.1 32.724 28.952 62.751 52.4 88.134 62.11 67.8 158.933 102.172 249.536 82.746 53.76-11.526 101.444-42.018 130.97-88.864 21.419-34.194 31.488-74.282 28.77-114.54-0.516-8.847 1.958-17.612 7.019-24.885 5.065-7.273 12.429-12.634 20.902-15.221 74.65-22.557 127.121-92.671 127.121-170.721-0.055-47.262-18.854-92.574-52.271-125.999-33.421-33.421-78.733-52.22-125.995-52.279h-144.201c-10.398-0.073-20.343-4.254-27.669-11.631-7.326-7.381-11.435-17.357-11.435-27.75 0-10.398 4.109-20.373 11.435-27.755 7.326-7.377 17.271-11.558 27.669-11.631h144.201c68.147 0.077 133.483 27.187 181.666 75.379 48.183 48.188 75.285 113.527 75.358 181.675 0.107 55.834-18.159 110.153-51.977 154.577-26.859 35.387-62.31 63.326-102.993 81.17v-0.008z" />
<glyph unicode="&#xe91e;" glyph-name="user" d="M695.202 684.495c0-9.8-0.704-19.5-2.001-29.2 0.401 2.7 0.7 5.3 1.101 8-2.603-18.3-7.403-36.2-14.502-53.2 1.003 2.4 2.001 4.8 2.999 7.2-5.299-12.6-11.797-24.7-19.401-36-1.899-2.9-3.998-5.8-6.097-8.6-4.403-5.9 3.797 4.7 0.7 0.9-1.101-1.4-2.202-2.7-3.302-4.1-4.198-5-8.597-9.9-13.197-14.5-4.604-4.6-9.502-9.1-14.502-13.2-1.301-1.1-2.701-2.2-4.1-3.3-3.9-3.1 6.801 5.1 0.9 0.7-2.799-2.1-5.7-4.1-8.597-6.1-11.401-7.599-23.403-13.999-36.002-19.401l7.202 2.999c-17.101-7.1-34.901-11.998-53.201-14.498 2.701 0.401 5.299 0.7 8 1.101-19.401-2.603-38.899-2.603-58.3 0 2.701-0.401 5.299-0.7 8-1.101-18.3 2.598-36.203 7.398-53.201 14.498l7.198-2.999c-12.599 5.299-24.698 11.802-35.998 19.401-2.9 1.9-5.8 4-8.6 6.1-5.9 4.4 4.7-3.8 0.9-0.7-1.4 1.1-2.7 2.2-4.1 3.3-5 4.2-9.9 8.6-14.5 13.2s-9.1 9.5-13.2 14.5c-1.1 1.3-2.2 2.7-3.3 4.1-3.1 3.9 5.1-6.8 0.7-0.9-2.1 2.8-4.1 5.7-6.1 8.6-7.6 11.4-14 23.4-19.4 36 1-2.4 2-4.8 3-7.2-7.1 17.1-12 34.9-14.5 53.2 0.4-2.7 0.7-5.3 1.1-8-2.6 19.4-2.6 38.9 0 58.3-0.4-2.7-0.7-5.3-1.1-8 2.6 18.3 7.4 36.2 14.5 53.2-1-2.4-2-4.8-3-7.2 5.3 12.6 11.8 24.7 19.4 36 1.9 2.9 4 5.8 6.1 8.6 4.4 5.9-3.8-4.7-0.7-0.9 1.1 1.4 2.2 2.7 3.3 4.1 4.2 5 8.6 9.9 13.2 14.5s9.5 9.1 14.5 13.2c1.3 1.1 2.7 2.2 4.1 3.3 3.9 3.1-6.8-5.1-0.9-0.7 2.8 2.1 5.7 4.1 8.6 6.1 11.4 7.6 23.398 14 35.998 19.4-2.398-1-4.8-2-7.198-3 17.101 7.1 34.901 12 53.201 14.5-2.701-0.4-5.299-0.7-8-1.1 19.401 2.6 38.899 2.6 58.3 0-2.701 0.4-5.299 0.7-8 1.1 18.3-2.6 36.198-7.4 53.201-14.5-2.402 1-4.8 2-7.202 3 12.599-5.3 24.7-11.8 36.002-19.4 2.897-1.9 5.798-4 8.597-6.1 5.901-4.4-4.698 3.8-0.9 0.7 1.399-1.1 2.701-2.2 4.1-3.3 5.001-4.2 9.899-8.6 14.502-13.2 4.599-4.6 9.097-9.5 13.197-14.5 1.101-1.3 2.202-2.7 3.302-4.1 3.098-3.9-5.103 6.8-0.7 0.9 2.099-2.8 4.1-5.7 6.097-8.6 7.603-11.4 14.003-23.4 19.401-36-0.998 2.4-1.997 4.8-2.999 7.2 7.1-17.1 12.002-34.9 14.502-53.2-0.401 2.7-0.7 5.3-1.101 8 1.297-9.7 2.001-19.4 2.001-29.1 0.098-15.7 13.798-30.7 29.999-30s30.097 13.2 29.999 30c-0.201 49.1-15.002 98.8-43.699 138.9-29.602 41.5-69.999 72.5-117.803 90.1-93.299 34.4-204.598 4.2-267.698-72.6-32.9-40.1-52.5-87.9-56.5-139.7-3.8-49.3 8.7-100.3 34.4-142.6 24.8-40.801 62.1-75.101 105.8-94.702 25.001-11.2 50.101-18.099 77.301-21.299 25.199-2.999 50.799-1.199 75.699 3.9 95.701 19.401 174.601 101.201 189.201 198.001 1.997 13.2 3.396 26.5 3.396 39.9 0.102 15.7-13.798 30.7-29.999 30-16.401-0.7-29.999-13.1-30.097-29.9zM416.206 408.7h203.084c27.695 0 54.895-0.329 82.291-6.127 53.299-11.2 103.535-40.794 139.332-81.792 38.191-43.695 60.783-97.792 65.084-155.584 0.499-6.353 0.657-12.745 0.708-19.123v-94.084c-0.124-6.857-0.525-13.705-1.626-20.501-5.901-36.595-40.277-62.703-76.373-63.206l-0.124 0.043v-0.043h-630.377c-13.8 0-26.725 2.79-39.125 8.789-26.688 12.902-42.077 42.112-42.083 71.002v41.502c0 35.494-1.598 71.108 4.5 106.206 9.399 53.692 37.792 104.802 77.583 141.999 19.7 18.402 42.417 34.325 66.917 45.628 27.695 12.796 55.998 20.476 86.292 23.876 21.1 2.3 42.717 1.417 63.917 1.417zM396.998 348.574c-15.383 0-30.669 0.021-45.958-1.668-17.64-2.761-34.806-7.475-51.334-14.084-10.67-4.774-21.091-10.313-30.917-16.623-4.577-2.863-8.988-5.978-13.375-9.207-0.807-0.657-1.571-1.31-2.333-1.92-2.193-1.792-4.407-3.605-6.5-5.5-8.393-7.394-16.181-15.296-23.375-23.791-1.401-1.6-5.382-4.983-5.792-7.083-0.1-0.499 4.367 5.798 2.667 3.499-0.399-0.597-0.768-1.126-1.167-1.621-0.798-1.101-1.535-2.069-2.333-3.17-3.4-4.599-6.5-9.306-9.5-14.208-5.425-8.862-10.1-18.099-14.292-27.541-6.658-16.623-11.38-33.92-14.083-51.584-1.114-10.048-1.5-20.173-1.5-30.289v-95.876c0.019-1.451 0.168-2.893 0.25-4.335 0.386-1.63 0.845-3.238 1.375-4.83 0.598-1.126 1.265-2.197 1.958-3.251 0.559-0.589 1.108-1.271 1.458-1.626-1.061 0.772-0.041-0.55 1.667-1.668 0.077-0.051 0.172-0.073 0.25-0.124 0.563-0.478 1.135-0.96 1.625-1.498-0.492 0.508-0.943 0.947-1.333 1.331 1.183-0.751 2.359-1.485 3.584-2.125 1.478-0.495 2.976-0.892 4.5-1.25 1.086-0.068 2.164-0.252 3.25-0.252h632.917c0.755 0.034 1.485 0.132 2.206 0.166 1.779 0.41 3.52 0.93 5.252 1.502 1.207 0.64 2.372 1.331 3.499 2.082 0.525 0.499 1.092 0.973 1.417 1.293-0.717-1.007 0.606-0.017 1.711 1.668 0.064 0.098 0.098 0.23 0.166 0.333 0.461 0.542 0.939 1.109 1.459 1.583-0.491-0.469-0.922-0.913-1.293-1.293 0.73 1.152 1.417 2.308 2.039 3.499 0.593 1.766 1.109 3.546 1.502 5.376 0.265 5.069 0.043 10.197 0.043 15.211v64.209c0 16.875 0.162 33.745-1.668 50.539-2.756 17.762-7.514 35.034-14.165 51.669-4.77 10.654-10.283 21.060-16.585 30.874-2.999 4.8-6.31 9.399-9.707 13.999-0.469 0.585-0.926 1.143-1.378 1.711-1.796 2.197-3.601 4.399-5.5 6.498-7.394 8.393-15.296 16.179-23.791 23.377-1.6 1.399-5.026 5.431-7.125 5.833-0.367 0.013 5.777-4.395 3.499-2.709-0.593 0.397-1.084 0.811-1.583 1.207-1.097 0.798-2.108 1.493-3.209 2.291-4.595 3.401-9.31 6.502-14.208 9.502-8.922 5.461-18.197 10.206-27.708 14.417-16.252 6.49-33.165 11.076-50.415 13.79-17.455 1.975-34.91 1.668-52.459 1.668h-223.709zM182.247 33.865c0.408-0.299 1.126-0.892 2.208-1.958-0.094 0.060-0.198 0.107-0.291 0.166-0.584 0.495-1.158 0.994-1.667 1.502-0.042 0.038-0.122 0.162-0.25 0.29zM842.957 35.324c-0.516-0.606-1.015-1.225-1.545-1.749-0.047-0.047-0.188-0.111-0.333-0.252 0.294 0.41 0.913 1.148 2.044 2.291-0.060-0.094-0.107-0.196-0.166-0.29z" />
<glyph unicode="&#xe91f;" glyph-name="video" d="M833.562 960h-643.121c-105.126-0.122-190.318-85.314-190.44-190.44v-643.121c0.122-105.126 85.314-190.315 190.44-190.438h643.121c105.126 0.124 190.315 85.312 190.438 190.438v643.121c-0.124 105.126-85.312 190.318-190.438 190.44zM953.31 769.56v-61.742h-179.076l-133.935 181.492h193.263c66.103-0.074 119.676-53.644 119.748-119.75zM552.444 889.31l133.931-181.492h-214.818l-133.932 181.492h214.82zM70.69 769.56c0.074 66.104 53.644 119.674 119.75 119.75h59.33l133.932-181.492h-313.012v61.742zM833.562 6.69h-643.121c-66.104 0.073-119.674 53.645-119.75 119.748v510.688h882.62v-510.688c-0.077-66.103-53.645-119.671-119.748-119.748zM700.578 352.525l-279.631 161.442c-16.906 9.762-38.522 3.968-48.282-12.937-3.102-5.376-4.736-11.469-4.736-17.677v-322.889c0-19.52 15.824-35.345 35.344-35.345 6.204 0 12.3 1.63 17.674 4.736l279.631 161.446c16.905 9.758 22.699 31.373 12.937 48.282-3.102 5.376-7.565 9.839-12.937 12.941zM438.618 221.683v200.452l173.598-100.224-173.598-100.228z" />
<glyph unicode="&#xe920;" glyph-name="website" d="M557.461 42.667h-360.779c-48.928 0-90.016 43.413-90.016 94.199v471.134h800v-166.613c0-18.249 13.751-33.058 32-33.058s32 14.797 32 33.058v317.077c0 86.112-68.727 158.869-153.911 158.869h-620.073c-85.376 0-154.016-71.264-154.016-158.869v-621.598c0-87.236 68.64-158.199 154.016-158.199h360.779c18.249 0 33.058 13.751 33.058 32s-14.81 32-33.058 32zM106.667 758.464c0 50.283 41.92 94.869 90.016 94.869h620.073c49.357 0 89.911-44.587 89.911-94.869v-86.464h-800v86.464zM795.435 789.333h-13.214c-18.253 0-33.058-19.083-33.058-37.333s14.797-37.333 33.058-37.333h13.214c18.253 0 33.058 19.083 33.058 37.333s-14.805 37.333-33.058 37.333zM683.051 789.333h-13.218c-18.249 0-33.054-19.083-33.054-37.333s14.793-37.333 33.054-37.333h13.218c18.249 0 33.054 19.083 33.054 37.333s-14.793 37.333-33.054 37.333zM564.075 789.333h-13.218c-18.249 0-33.054-19.083-33.054-37.333s14.793-37.333 33.054-37.333h13.218c18.249 0 33.054 19.083 33.054 37.333s-14.805 37.333-33.054 37.333zM542.784 315.558c-29.099 29.099-29.099 76.459 0 105.557l0.461 0.461c29.141 28.672 76.181 28.544 105.139-0.418l77.056-77.056c12.907-12.907 33.835-12.907 46.741 0s12.907 33.835 0 46.741l-77.065 77.069c-54.869 54.857-144.162 54.848-199.040 0l-0.994-1.003c-67.093-68.237-25.63-171.499 0.951-198.080l77.056-77.056c6.451-6.455 26.901-22.434 46.741 0 12.096 13.675 12.907 33.835 0 46.741l-77.047 77.043zM941.717 221.308l-77.056 77.056c-12.907 12.907-33.835 12.907-46.741 0s-12.907-33.835 0-46.741l77.056-77.056c29.099-29.099 29.099-76.459 0-105.557l-0.299-0.299c-29.133-28.843-76.288-28.762-105.301 0.256l-77.056 77.065c-12.907 12.907-33.835 12.907-46.741 0s-12.907-33.835 0-46.741l77.065-77.065c27.435-27.426 121.365-76.885 199.031 0l0.512 0.508c54.4 54.912 54.238 143.863-0.469 198.575zM612.681 348.45c-12.907-12.907-12.907-33.835 0-46.741l163.597-163.593c6.451-6.455 31.723-20.779 46.741 0 10.688 14.793 12.907 33.835 0 46.741l-163.597 163.593c-12.907 12.907-33.822 12.919-46.741 0z" />
<glyph unicode="&#xe921;" glyph-name="x" d="M752.917 719.084c8.333 8.331 21.837 8.331 30.165 0s8.333-21.836 0-30.167l-240.913-240.916 240.913-240.917 2.752-3.332c5.466-8.282 4.54-19.546-2.752-26.833-7.287-7.287-18.551-8.218-26.833-2.752l-3.332 2.752-240.917 240.917-240.915-240.917c-8.331-8.329-21.836-8.329-30.167 0s-8.331 21.837 0 30.165l240.917 240.917-240.917 240.916c-8.331 8.331-8.331 21.836 0 30.167s21.836 8.331 30.167 0l240.915-240.918 240.917 240.918z" />
</font>
</defs>
</svg>
