<svg width="126" height="40" viewBox="0 0 126 40" fill="none" xmlns="http://www.w3.org/2000/svg">
<path d="M102.644 9.42431H92.3668C92.4095 10.064 92.4095 10.661 92.3242 11.2154C102.047 8.95522 102.985 15.565 99.2325 15.4371C97.612 14.2857 94.5417 12.7932 92.111 12.0682C91.6845 13.5181 90.789 14.4563 89.7229 14.968C88.273 15.6077 86.482 15.1812 86.0555 13.6034C85.6717 12.1109 86.6525 11.0874 87.9745 10.533C89.5097 9.93603 91.0449 8.14499 90.8743 6.01279L91.4713 5.97015C91.8125 6.73774 92.0257 7.50533 92.1962 8.18763H102.644V4.5629H91.2581L90.9169 3.32623H112.836L115.48 0C115.48 0 118.465 2.26013 120.299 3.8806C120.213 4.34968 119.744 4.5629 119.147 4.5629H107.591V8.18763H118.422L120.853 5.71429L125.117 9.85075C124.776 10.1493 124.35 10.2772 123.497 10.3625C122.303 11.7271 120.256 13.6887 118.593 14.7122L118.166 14.4989L118.252 13.8166C117.996 13.9019 117.655 13.774 117.271 13.5181C115.608 13.9446 111.642 14.5842 108.657 14.7548L108.486 14.3284C110.746 13.0917 114.158 10.661 115.565 9.50959L118.337 13.3475C118.508 12.1109 118.678 10.661 118.806 9.42431H107.591V19.6588C107.591 19.8721 106.056 20.7249 103.54 20.7249H102.644V9.42431ZM117.74 23.113H91.5139L91.1728 21.8763H111.983L114.414 18.9765C114.414 18.9765 117.186 20.9382 118.934 22.4307C118.806 22.8998 118.337 23.113 117.74 23.113ZM101.919 15.4797L102.047 16.0341C100.299 17.0576 97.612 18.5075 93.9446 20.3412C93.7314 20.8955 93.305 21.194 92.8359 21.2793L90.9596 16.6738C92.9212 16.5458 97.4841 16.0768 101.919 15.4797ZM108.188 16.1194L108.316 15.5224C121.876 13.6034 121.151 21.0235 117.314 20.2559C115.778 19.1045 112.239 17.2281 108.188 16.1194ZM116.333 27.548L118.977 24.3497C118.977 24.3497 121.962 26.5245 123.753 28.1023C123.667 28.5714 123.241 28.7846 122.601 28.7846H102.004L106.397 31.2154C106.183 31.5565 105.672 31.8124 104.776 31.6418C102.473 32.8785 98.6781 34.3284 95.224 35.2665C99.9574 35.2239 107.122 35.0107 114.67 34.7548C113.39 33.0064 111.94 31.3859 110.661 30.1493L111.045 29.8081C125.032 32.6652 122.132 42.1748 117.271 39.3177C116.844 38.209 116.205 36.9723 115.395 35.8209C109.979 36.8017 102.175 38.081 93.0491 39.2751C92.7506 39.6588 92.3668 39.8721 92.0257 40L90.4052 34.8827C90.4052 34.8827 91.2581 34.7548 91.7272 34.5842C94.5843 33.6887 98.209 30.7463 100.043 28.7846H87.7613L87.4201 27.548H116.333Z" fill="#CA9969"/>
<path d="M60.3412 4.47761H53.4329V11.1301H60.3412V4.47761ZM72.0256 4.47761H65.1599V11.1301H72.0256V4.47761ZM65.1599 19.3177H72.0256V12.3241H65.1599V19.3177ZM53.4329 19.3177H60.3412V12.3241H53.4329V19.3177ZM53.4329 20.5544V21.9616C53.4329 22.4733 51.258 23.6247 49.1258 23.6247H48.4009V1.10874L53.774 3.24094H71.5992L73.9446 0.682302L78.806 4.39233C78.5501 4.73348 77.9531 5.15992 77.0576 5.33049V21.5778C77.015 21.8763 74.5416 22.8571 72.8785 22.8571H72.0256V20.5544H53.4329ZM59.8721 22.2601L60.2132 22.0043C72.4521 24.6055 67.7612 33.8166 63.1983 30.1493C63.0704 27.3774 61.5352 24.2644 59.8721 22.2601ZM47.9318 24.8614L48.4435 24.8188C51.0448 30.6183 49.5096 34.7548 47.1642 36.1194C45.5864 37.1429 43.4115 36.6311 42.8145 34.8401C42.2602 33.0917 43.3263 31.8124 44.7335 31.0448C46.354 30.1066 48.1024 27.6759 47.9318 24.8614ZM73.177 28.5714L73.3049 33.774C74.8401 34.2857 75.1813 34.8827 75.1813 35.7783C75.1813 37.9531 73.1344 38.678 64.5629 38.678H59.0192C54.1152 38.678 52.9638 37.9105 52.9638 34.4563V24.1365L59.3177 24.6482C59.2324 25.2452 58.8486 25.5864 57.9958 25.7569V33.4755C57.9958 34.1151 58.209 34.2857 59.8295 34.2857H65.1173C66.951 34.2857 68.6567 34.2857 69.339 34.2431C70.064 34.2004 70.3199 34.0725 70.661 33.6034C71.1727 32.8785 71.855 31.1301 72.7079 28.5714H73.177ZM72.8785 24.8614L73.2623 24.5629C87.2068 28.3582 82.516 39.1045 77.4414 34.9254C77.1855 31.3859 75.1813 27.4627 72.8785 24.8614Z" fill="#CA9969"/>
<path d="M30.4478 7.37739H21.0661V13.9019H30.4478V7.37739ZM31.7697 21.322H21.0661V28.6567H31.7697V21.322ZM21.0661 29.8934V31.5991C21.0661 32.1535 19.1045 33.3049 16.9723 33.3049H16.2047V4.05117L21.322 6.14072H21.8763C22.1322 4.39232 22.3454 1.87633 22.4734 0.127926L30.0213 1.23667C29.8507 1.91897 29.2537 2.26012 28.3156 2.38806C27.3348 3.41151 25.8422 4.94669 24.6908 6.14072H30.0213L32.3241 3.66737L37.1429 7.29211C36.887 7.63326 36.29 7.97441 35.3945 8.18763V15.9488C35.3518 16.2473 32.8358 17.0576 31.3006 17.0576H30.4478V15.1386H21.0661V20.1279H31.3433L33.6034 17.6546L38.4648 21.2367C38.1663 21.5778 37.5693 21.9616 36.7164 22.1748V31.2153C36.6738 31.4712 34.2004 32.3241 32.6226 32.3241H31.7697V29.8934H21.0661ZM1.83369 0.980807L2.17484 0.724941C14.3284 1.27931 10.7463 10.533 5.92751 7.54797C5.41578 5.20255 3.53945 2.51599 1.83369 0.980807ZM11.8124 17.9957L16.162 21.4925C15.9062 21.8763 15.5224 22.0043 14.6269 22.0896C13.3475 25.1173 10.9595 28.2729 7.93177 30.8316C8.14499 30.9168 8.35821 31.0448 8.61407 31.2153C11.9403 33.9446 17.0576 34.5842 26.3539 34.5416C31.258 34.5416 35.3945 34.4989 40.3838 34.2431V34.7548C38.3369 35.1812 37.1855 36.9723 36.9296 38.9339H24.6908C15.4797 38.9339 11.6844 37.1855 8.0597 32.7505C7.46269 31.9829 6.9936 32.0682 6.60981 32.8358C5.88486 34.1151 4.64819 36.4179 3.71002 38.5927C3.79531 38.9765 3.62473 39.2751 3.32623 39.4456L0 34.5842C1.70576 33.6887 4.13646 32.0682 5.71429 31.2153C7.42004 28.4435 8.86994 24.7761 9.5096 21.6631H6.95096L5.37313 23.113L1.40725 20.2985C1.83369 20 2.47335 19.7015 3.11301 19.4456C4.52026 17.484 6.35395 14.5842 7.54798 12.5373H0.938166L0.554371 11.3006H7.63326L9.8081 9.12579L14.0725 13.049C13.6887 13.4328 12.8358 13.6461 11.8124 13.6887C10.7036 15.5224 8.86994 18.4222 7.46269 20.4691H9.33902L11.8124 17.9957Z" fill="#CA9969"/>
</svg>
